<svg id="svg" xmlns="http://www.w3.org/2000/svg" xmlns:xlink="http://www.w3.org/1999/xlink" width="400" height="349.0909090909091" viewBox="0, 0, 400,349.0909090909091"><g id="svgg"><path id="path0" d="M131.464 1.866 C 125.111 5.312,126.068 14.259,133.173 17.860 C 146.323 24.524,147.586 31.351,137.684 42.254 C 118.156 63.759,119.865 83.410,142.545 98.144 C 154.786 106.095,165.539 92.420,153.533 84.171 C 138.595 73.908,138.207 68.648,151.291 53.818 C 162.894 40.666,165.072 30.871,159.084 18.756 C 153.303 7.059,138.536 -1.972,131.464 1.866 M189.161 1.647 C 181.639 5.513,183.039 13.881,192.061 18.992 C 203.921 25.710,204.416 31.418,194.145 43.030 C 175.708 63.875,177.111 82.082,198.322 97.218 C 207.110 103.489,215.273 101.277,215.273 92.625 C 215.273 88.174,214.933 87.664,208.546 82.531 C 195.960 72.415,195.910 67.650,208.252 53.969 C 219.512 41.486,222.123 29.759,216.176 18.374 C 210.426 7.365,195.735 -1.731,189.161 1.647 M242.736 1.866 C 235.862 5.596,237.346 14.741,245.447 18.574 C 257.706 24.373,258.455 31.631,247.995 43.273 C 229.388 63.981,231.484 83.625,253.854 98.165 C 266.612 106.458,276.665 92.237,264.084 83.693 C 250.449 74.434,249.796 68.017,261.196 55.313 C 274.199 40.824,276.460 31.372,270.071 18.228 C 264.812 7.408,249.459 -1.782,242.736 1.866 M193.091 126.871 C 182.356 129.613,173.502 137.683,170.769 147.217 C 170.302 148.848,169.882 150.251,169.836 150.336 C 169.790 150.421,164.858 151.484,158.876 152.700 C 74.857 169.774,13.091 237.312,13.091 312.110 L 13.091 319.418 15.564 321.891 L 18.036 324.364 200.364 324.364 L 382.691 324.364 385.164 321.891 C 390.599 316.455,386.520 283.953,377.517 260.962 C 355.216 204.011,303.417 164.205,234.727 151.232 C 231.611 150.644,230.545 150.131,230.545 149.221 C 230.545 148.550,229.564 145.927,228.365 143.394 C 222.284 130.539,206.914 123.340,193.091 126.871 M203.796 144.032 C 209.359 145.577,213.818 151.406,213.818 157.134 C 213.818 164.146,216.823 166.701,226.545 167.954 C 301.477 177.619,362.436 234.539,369.323 301.273 L 369.905 306.909 200.271 306.909 L 30.637 306.909 30.923 304.545 C 39.521 233.527,95.708 179.230,171.858 168.352 C 183.998 166.618,186.909 164.448,186.909 157.134 C 186.909 151.713,191.549 145.330,196.238 144.300 C 197.307 144.065,198.509 143.764,198.909 143.630 C 200.203 143.198,201.043 143.267,203.796 144.032 M227.138 179.246 C 222.367 181.321,220.941 188.743,224.545 192.740 C 226.138 194.506,228.251 195.464,234.909 197.437 C 277.815 210.155,313.643 238.268,333.703 274.957 C 339.395 285.367,347.053 287.564,351.486 280.058 C 356.829 271.014,331.775 235.072,305.818 214.544 C 280.525 194.540,236.935 174.985,227.138 179.246 M2.473 334.836 C -0.965 338.274,-1.121 343.718,2.126 346.965 L 4.252 349.091 200.341 349.091 L 396.430 349.091 398.215 347.306 C 401.108 344.412,400.846 336.841,397.762 334.246 L 395.525 332.364 200.235 332.364 L 4.945 332.364 2.473 334.836 " stroke="none" fill="#000000" fill-rule="evenodd"></path></g></svg>