<svg xmlns="http://www.w3.org/2000/svg" width="20" height="20" viewBox="0 0 20 20" fill="none">
    <path d="M16.385 6.18116C15.4246 6.06879 14.4642 5.98221 13.5045 5.92081C13.2601 5.51738 13.017 5.1115 12.7781 4.70376C12.5865 4.37954 12.1696 4.0934 11.8466 4.0762C10.5651 4.00682 9.2835 4.00989 8.00203 4.08541C7.67904 4.10445 7.26517 4.39427 7.0785 4.72218C6.85008 5.12623 6.61796 5.52904 6.38523 5.92879C5.46661 5.98958 4.54745 6.07371 3.6288 6.18117C3.28616 6.22231 2.94844 6.52443 2.8901 6.84742C2.42772 9.47983 2.54439 12.1122 3.24011 14.7453C3.32731 15.0683 3.6724 15.3857 3.99478 15.4441C8.00266 16.1521 12.0105 16.1521 16.0184 15.4441C16.3408 15.3857 16.6865 15.0683 16.7731 14.7453C17.4688 12.1129 17.5855 9.47983 17.1231 6.84742C17.066 6.52443 16.7276 6.22291 16.385 6.18116ZM9.94543 14.8527C7.96507 14.8362 6.06646 12.9522 5.98974 10.8639C5.95536 8.77427 7.85221 6.94812 9.94292 6.93145C12.0332 6.94374 13.9256 8.77112 13.8925 10.8656C13.8163 12.9588 11.9256 14.8424 9.94543 14.8527Z" fill="#333333"/>
    <path d="M11.8018 9.34961C12.7849 10.3149 12.7431 11.842 11.7606 12.8251C10.7843 13.8124 9.32284 13.8143 8.34775 12.8269" fill="#333333"/>
</svg>