<?xml version="1.0" encoding="UTF-8" standalone="no"?>
<svg
   version="1.1"
   width="600"
   height="600"
   id="svg749"
   sodipodi:docname="logo.svg"
   inkscape:version="1.1.2 (0a00cf5339, 2022-02-04)"
   inkscape:export-filename="/home/felipe/Documentos/BYU/wdd231/chamber/images/logo.png"
   inkscape:export-xdpi="96"
   inkscape:export-ydpi="96"
   xmlns:inkscape="http://www.inkscape.org/namespaces/inkscape"
   xmlns:sodipodi="http://sodipodi.sourceforge.net/DTD/sodipodi-0.dtd"
   xmlns="http://www.w3.org/2000/svg"
   xmlns:svg="http://www.w3.org/2000/svg">
  <defs
     id="defs753" />
  <sodipodi:namedview
     id="namedview751"
     borderopacity="1.0"
     inkscape:pageshadow="2"
     inkscape:pageopacity="0.0"
     inkscape:pagecheckerboard="0"
     showgrid="false"
     showguides="true"
     inkscape:guide-bbox="true"
     inkscape:zoom="0.64"
     inkscape:cx="32.8125"
     inkscape:cy="478.90625"
     inkscape:window-width="1920"
     inkscape:window-height="1017"
     inkscape:window-x="0"
     inkscape:window-y="0"
     inkscape:window-maximized="1"
     inkscape:current-layer="svg749"
     inkscape:snap-grids="true">
    <sodipodi:guide
       position="298.22553,263.4374"
       orientation="1,0"
       id="guide60970" />
    <sodipodi:guide
       position="298.22553,263.4374"
       orientation="0,-1"
       id="guide60972" />
  </sodipodi:namedview>
  <circle
     style="fill:#fefefe;fill-opacity:1;stroke:none;stroke-width:0.519348;stroke-miterlimit:4;stroke-dasharray:none;stroke-opacity:1"
     id="path58195"
     cx="299.74033"
     cy="299.74033"
     inkscape:label="background"
     r="299.74033" />
  <path
     id="yellow-top"
     d="m 251.20721,43.736057 c 32.42395,23.37635 67.4469,65.384343 94.41016,92.492193 l -47,34 -46.16843,-44.49711 c -25.77463,-4.65208 -112.52381,60.51343 -129.4761,122.87211 l -86.355472,82.625 c -0.83357,-5.8179 -1.16001,-11.46258 -1.16797,-17.33594 -0.0124,-2.75806 -0.017,-5.69366 -0.0171,-8.22314 -0.002,-2.77344 -0.0203,-5.54646 -0.0393,-8.31983 -0.0513,-15.67894 1.11511,-30.82996 4.72461,-46.12109 0.42786,-1.87482 0.85495,-3.74982 1.28125,-5.625 0.20866,-0.90041 0.41733,-1.80082 0.63232,-2.72852 0.56078,-2.53076 1.03591,-5.06535 1.50049,-7.61523 1.12313,-5.69894 3.00535,-11.0716 4.96094,-16.53125 0.33902,-0.96809 0.67804,-1.93617 1.02734,-2.9336 2.82467,-8.00143 5.67601,-16.05751 9.53516,-23.6289 5.01559,-9.99149 9.43764,-19.42361 14.8125,-28.25 10.42821,-16.41685 23.17638,-32.58903 34.750002,-44.6875 0.50176,-0.52368 1.00353,-1.04736 1.5205,-1.58691 9.0575,-9.57304 18.17482,-16.56399 27.292,-24.413091 8.33791,-6.366042 19.25328,-13.305452 27.37331,-18.422812 6.59064,-3.73939 17.34806,-10.20454 22.57981,-12.27641 4.667,-1.85652 9.30556,-3.75896 13.92188,-5.73828 13.97668,-5.41154 27.20223,-9.18936 40.04492,-11.59375 3.27304,-0.58377 6.56324,-1.00932 9.85718,-1.46094 z"
     fill="#cc9747"
     sodipodi:nodetypes="ccccccccccccccccccccccccc"
     sodipodi:insensitive="true" />
  <path
     id="yellow-bottom"
     d="m 560.61737,273.22825 c 2.73767,33.2059 1.91508,62.51621 -6.84253,94.65625 -6.25794,21.96349 -13.80223,40.29297 -23.15747,58.34375 -8.99566,16.18487 -17.51933,29.36917 -34.1875,48.3125 -18.58784,21.89295 -40.16338,39.80306 -64.8125,53.6875 -26.1501,15.09642 -57.47601,25.96917 -84.27053,31.34776 l -95.65275,-94.45381 45.92328,-31.89395 48.11326,44.02177 C 429.31292,450.66915 462.41632,385.22825 474.6745,355.57737 Z"
     fill="#cd9847"
     sodipodi:nodetypes="ccccccccccc"
     sodipodi:insensitive="true" />
  <path
     id="blue-bottom"
     d="m 117.61737,287.22825 c -1.75533,22.20357 2.02495,31.49432 3.3125,46.6875 4.61827,18.98697 10.28271,36.52817 17.75,51.4336 1.82764,3.86495 4.14515,8.28549 5.625,10.6289 17.99253,34.09491 54.04719,60.8328 81.94629,76.18677 l 90.41563,90.47781 c -24.02522,3.95897 -49.45132,-0.0796 -72.23692,-3.16458 -15.69752,-2.83263 -31.79087,-8.92845 -44.10156,-13.46094 -11.61639,-4.16128 -25.93119,-11.93106 -36.08594,-17.91406 -11.05848,-6.46793 -22.3606,-14.90103 -31.06518,-21.7959 -18.8563,-14.06519 -37.982372,-37.95098 -46.872322,-48.8291 -8.79873,-12.99935 -16.94469,-25.79987 -23.54541,-38.98218 -5.39004,-9.85599 -9.49681,-21.51214 -12.74365,-30.83227 -2.00566,-5.84984 -3.56821,-11.84783 -4.89916,-15.6212 -1.03611,-3.53434 -3.0712,-9.31541 -2.59399,-10.24458 z"
     fill="#25486b"
     sodipodi:nodetypes="cccccccccccccccc"
     sodipodi:insensitive="true" />
  <path
     id="blue-top"
     d="m 284.62943,41.214997 18.72053,-0.44188 c 28.12065,0.2361 68.28303,8.07187 82.26741,12.45513 25.18931,7.44885 59.38018,30.65082 87.84767,53.534493 10.81546,10.3431 20.51196,19.29583 29.3599,30.75868 0.79664,0.99128 17.34947,20.06465 33.60423,52.63711 9.95846,20.21469 15.25291,43.43028 18.78244,53.41518 l -75.59424,72.65454 c 0,0 -0.0396,-1.43682 -0.0601,-2.177 -0.49768,-17.84389 -0.49768,-17.84389 -1.87744,-35.6355 -1.50866,-6.98257 -3.24622,-14.72804 -4.43746,-21.3125 -4.69146,-13.9367 -7.68512,-21.86798 -10.50781,-29.36719 -9.91593,-21.7432 -22.81778,-40.39772 -37.12223,-56.77531 -16.98706,-16.82032 -29.47444,-25.48059 -49.44541,-37.4221 z"
     fill="#25486b"
     sodipodi:nodetypes="ccccccccccccccc"
     sodipodi:insensitive="true" />
  <path
     d="m 333.61737,385.22825 h -21 c 3.60192,12.92482 30.13696,38.1048 0,33 l -14.39184,-10.0403 -15.60816,10.0403 v -33 l -22.65463,-0.12323 c 12.7313,-10.51579 26.1887,-21.53782 37.922,-31.20686 17.53711,14.76316 17.5362,14.77413 35.73263,31.33009 z"
     fill="#bebebe"
     id="path21"
     inkscape:label="arrow"
     sodipodi:nodetypes="ccccccccc"
     sodipodi:insensitive="true" />
  <g
     id="g2334"
     inkscape:label="city"
     transform="translate(-213.38262,-134.77175)"
     sodipodi:insensitive="true">
    <path
       id="city"
       d="m 0,0 h 5 v 46 l 17,-8 8,-3 v 124 l 9,4 L 39.101231,87.948461 82.249053,110.08693 82,188 h 9 v -44 l 33,11 v 34 h 12 c -6.64892,22.65641 -64.031966,54.46554 -91.963432,59.49487 L 14,221 c 0,0 -0.04918,-22.74986 10e-6,-33 H 35 C 21,175 21,175 -0.73263551,156.66991 -17.447114,170.35566 -17.441986,170.29916 -38.654634,187.87677 L -16,188 v 33 l -38.430176,27.49487 C -80.325992,242.91395 -126.4361,208.24466 -136,190 h 22 l 0.12466,-34.96227 L -78,139 v 51 h 10 V 110 L -37,99 V 64 L 0,49 Z"
       fill="#25486b"
       transform="translate(512,332)"
       inkscape:label="city-body"
       sodipodi:nodetypes="ccccccccccccccccccccccccccccccccccc"
       sodipodi:insensitive="true" />
    <path
       d="m 0.38534223,0.03714857 c 0,0 -0.16884329,45.64173543 0.0201636,63.97542143 L -8,64 V 0 Z"
       fill="#f1f5f7"
       transform="translate(498,418)"
       id="path51"
       sodipodi:insensitive="true"
       inkscape:label="window"
       sodipodi:nodetypes="ccccc" />
  </g>
</svg>
